<?xml version="1.0" encoding="utf-8" standalone="no"?>
<!DOCTYPE svg PUBLIC "-//W3C//DTD SVG 1.1//EN"
  "http://www.w3.org/Graphics/SVG/1.1/DTD/svg11.dtd">
<svg xmlns:xlink="http://www.w3.org/1999/xlink" width="720pt" height="432pt" viewBox="0 0 720 432" xmlns="http://www.w3.org/2000/svg" version="1.1">
 <metadata>
  <rdf:RDF xmlns:dc="http://purl.org/dc/elements/1.1/" xmlns:cc="http://creativecommons.org/ns#" xmlns:rdf="http://www.w3.org/1999/02/22-rdf-syntax-ns#">
   <cc:Work>
    <dc:type rdf:resource="http://purl.org/dc/dcmitype/StillImage"/>
    <dc:date>2024-05-14T16:14:38.318073</dc:date>
    <dc:format>image/svg+xml</dc:format>
    <dc:creator>
     <cc:Agent>
      <dc:title>Matplotlib v3.8.4, https://matplotlib.org/</dc:title>
     </cc:Agent>
    </dc:creator>
   </cc:Work>
  </rdf:RDF>
 </metadata>
 <defs>
  <style type="text/css">*{stroke-linejoin: round; stroke-linecap: butt}</style>
 </defs>
 <g id="figure_1">
  <g id="patch_1">
   <path d="M 0 432 
L 720 432 
L 720 0 
L 0 0 
z
" style="fill: #ffffff"/>
  </g>
  <g id="axes_1">
   <g id="patch_2">
    <path d="M 90 384.48 
L 648 384.48 
L 648 51.84 
L 90 51.84 
z
" style="fill: #ffffff"/>
   </g>
   <g id="matplotlib.axis_1">
    <g id="xtick_1">
     <g id="line2d_1">
      <path d="M 115.363636 384.48 
L 115.363636 51.84 
" clip-path="url(#p391f6ac3f4)" style="fill: none; stroke: #b0b0b0; stroke-width: 0.8; stroke-linecap: square"/>
     </g>
     <g id="line2d_2">
      <defs>
       <path id="m71944ba590" d="M 0 0 
L 0 3.5 
" style="stroke: #000000; stroke-width: 0.8"/>
      </defs>
      <g>
       <use xlink:href="#m71944ba590" x="115.363636" y="384.48" style="stroke: #000000; stroke-width: 0.8"/>
      </g>
     </g>
     <g id="text_1">
      <!-- 0 -->
      <g transform="translate(112.182386 399.078438) scale(0.1 -0.1)">
       <defs>
        <path id="DejaVuSans-30" d="M 2034 4250 
Q 1547 4250 1301 3770 
Q 1056 3291 1056 2328 
Q 1056 1369 1301 889 
Q 1547 409 2034 409 
Q 2525 409 2770 889 
Q 3016 1369 3016 2328 
Q 3016 3291 2770 3770 
Q 2525 4250 2034 4250 
z
M 2034 4750 
Q 2819 4750 3233 4129 
Q 3647 3509 3647 2328 
Q 3647 1150 3233 529 
Q 2819 -91 2034 -91 
Q 1250 -91 836 529 
Q 422 1150 422 2328 
Q 422 3509 836 4129 
Q 1250 4750 2034 4750 
z
" transform="scale(0.015625)"/>
       </defs>
       <use xlink:href="#DejaVuSans-30"/>
      </g>
     </g>
    </g>
    <g id="xtick_2">
     <g id="line2d_3">
      <path d="M 199.909091 384.48 
L 199.909091 51.84 
" clip-path="url(#p391f6ac3f4)" style="fill: none; stroke: #b0b0b0; stroke-width: 0.8; stroke-linecap: square"/>
     </g>
     <g id="line2d_4">
      <g>
       <use xlink:href="#m71944ba590" x="199.909091" y="384.48" style="stroke: #000000; stroke-width: 0.8"/>
      </g>
     </g>
     <g id="text_2">
      <!-- 10 -->
      <g transform="translate(193.546591 399.078438) scale(0.1 -0.1)">
       <defs>
        <path id="DejaVuSans-31" d="M 794 531 
L 1825 531 
L 1825 4091 
L 703 3866 
L 703 4441 
L 1819 4666 
L 2450 4666 
L 2450 531 
L 3481 531 
L 3481 0 
L 794 0 
L 794 531 
z
" transform="scale(0.015625)"/>
       </defs>
       <use xlink:href="#DejaVuSans-31"/>
       <use xlink:href="#DejaVuSans-30" x="63.623047"/>
      </g>
     </g>
    </g>
    <g id="xtick_3">
     <g id="line2d_5">
      <path d="M 284.454545 384.48 
L 284.454545 51.84 
" clip-path="url(#p391f6ac3f4)" style="fill: none; stroke: #b0b0b0; stroke-width: 0.8; stroke-linecap: square"/>
     </g>
     <g id="line2d_6">
      <g>
       <use xlink:href="#m71944ba590" x="284.454545" y="384.48" style="stroke: #000000; stroke-width: 0.8"/>
      </g>
     </g>
     <g id="text_3">
      <!-- 20 -->
      <g transform="translate(278.092045 399.078438) scale(0.1 -0.1)">
       <defs>
        <path id="DejaVuSans-32" d="M 1228 531 
L 3431 531 
L 3431 0 
L 469 0 
L 469 531 
Q 828 903 1448 1529 
Q 2069 2156 2228 2338 
Q 2531 2678 2651 2914 
Q 2772 3150 2772 3378 
Q 2772 3750 2511 3984 
Q 2250 4219 1831 4219 
Q 1534 4219 1204 4116 
Q 875 4013 500 3803 
L 500 4441 
Q 881 4594 1212 4672 
Q 1544 4750 1819 4750 
Q 2544 4750 2975 4387 
Q 3406 4025 3406 3419 
Q 3406 3131 3298 2873 
Q 3191 2616 2906 2266 
Q 2828 2175 2409 1742 
Q 1991 1309 1228 531 
z
" transform="scale(0.015625)"/>
       </defs>
       <use xlink:href="#DejaVuSans-32"/>
       <use xlink:href="#DejaVuSans-30" x="63.623047"/>
      </g>
     </g>
    </g>
    <g id="xtick_4">
     <g id="line2d_7">
      <path d="M 369 384.48 
L 369 51.84 
" clip-path="url(#p391f6ac3f4)" style="fill: none; stroke: #b0b0b0; stroke-width: 0.8; stroke-linecap: square"/>
     </g>
     <g id="line2d_8">
      <g>
       <use xlink:href="#m71944ba590" x="369" y="384.48" style="stroke: #000000; stroke-width: 0.8"/>
      </g>
     </g>
     <g id="text_4">
      <!-- 30 -->
      <g transform="translate(362.6375 399.078438) scale(0.1 -0.1)">
       <defs>
        <path id="DejaVuSans-33" d="M 2597 2516 
Q 3050 2419 3304 2112 
Q 3559 1806 3559 1356 
Q 3559 666 3084 287 
Q 2609 -91 1734 -91 
Q 1441 -91 1130 -33 
Q 819 25 488 141 
L 488 750 
Q 750 597 1062 519 
Q 1375 441 1716 441 
Q 2309 441 2620 675 
Q 2931 909 2931 1356 
Q 2931 1769 2642 2001 
Q 2353 2234 1838 2234 
L 1294 2234 
L 1294 2753 
L 1863 2753 
Q 2328 2753 2575 2939 
Q 2822 3125 2822 3475 
Q 2822 3834 2567 4026 
Q 2313 4219 1838 4219 
Q 1578 4219 1281 4162 
Q 984 4106 628 3988 
L 628 4550 
Q 988 4650 1302 4700 
Q 1616 4750 1894 4750 
Q 2613 4750 3031 4423 
Q 3450 4097 3450 3541 
Q 3450 3153 3228 2886 
Q 3006 2619 2597 2516 
z
" transform="scale(0.015625)"/>
       </defs>
       <use xlink:href="#DejaVuSans-33"/>
       <use xlink:href="#DejaVuSans-30" x="63.623047"/>
      </g>
     </g>
    </g>
    <g id="xtick_5">
     <g id="line2d_9">
      <path d="M 453.545455 384.48 
L 453.545455 51.84 
" clip-path="url(#p391f6ac3f4)" style="fill: none; stroke: #b0b0b0; stroke-width: 0.8; stroke-linecap: square"/>
     </g>
     <g id="line2d_10">
      <g>
       <use xlink:href="#m71944ba590" x="453.545455" y="384.48" style="stroke: #000000; stroke-width: 0.8"/>
      </g>
     </g>
     <g id="text_5">
      <!-- 40 -->
      <g transform="translate(447.182955 399.078438) scale(0.1 -0.1)">
       <defs>
        <path id="DejaVuSans-34" d="M 2419 4116 
L 825 1625 
L 2419 1625 
L 2419 4116 
z
M 2253 4666 
L 3047 4666 
L 3047 1625 
L 3713 1625 
L 3713 1100 
L 3047 1100 
L 3047 0 
L 2419 0 
L 2419 1100 
L 313 1100 
L 313 1709 
L 2253 4666 
z
" transform="scale(0.015625)"/>
       </defs>
       <use xlink:href="#DejaVuSans-34"/>
       <use xlink:href="#DejaVuSans-30" x="63.623047"/>
      </g>
     </g>
    </g>
    <g id="xtick_6">
     <g id="line2d_11">
      <path d="M 538.090909 384.48 
L 538.090909 51.84 
" clip-path="url(#p391f6ac3f4)" style="fill: none; stroke: #b0b0b0; stroke-width: 0.8; stroke-linecap: square"/>
     </g>
     <g id="line2d_12">
      <g>
       <use xlink:href="#m71944ba590" x="538.090909" y="384.48" style="stroke: #000000; stroke-width: 0.8"/>
      </g>
     </g>
     <g id="text_6">
      <!-- 50 -->
      <g transform="translate(531.728409 399.078438) scale(0.1 -0.1)">
       <defs>
        <path id="DejaVuSans-35" d="M 691 4666 
L 3169 4666 
L 3169 4134 
L 1269 4134 
L 1269 2991 
Q 1406 3038 1543 3061 
Q 1681 3084 1819 3084 
Q 2600 3084 3056 2656 
Q 3513 2228 3513 1497 
Q 3513 744 3044 326 
Q 2575 -91 1722 -91 
Q 1428 -91 1123 -41 
Q 819 9 494 109 
L 494 744 
Q 775 591 1075 516 
Q 1375 441 1709 441 
Q 2250 441 2565 725 
Q 2881 1009 2881 1497 
Q 2881 1984 2565 2268 
Q 2250 2553 1709 2553 
Q 1456 2553 1204 2497 
Q 953 2441 691 2322 
L 691 4666 
z
" transform="scale(0.015625)"/>
       </defs>
       <use xlink:href="#DejaVuSans-35"/>
       <use xlink:href="#DejaVuSans-30" x="63.623047"/>
      </g>
     </g>
    </g>
    <g id="xtick_7">
     <g id="line2d_13">
      <path d="M 622.636364 384.48 
L 622.636364 51.84 
" clip-path="url(#p391f6ac3f4)" style="fill: none; stroke: #b0b0b0; stroke-width: 0.8; stroke-linecap: square"/>
     </g>
     <g id="line2d_14">
      <g>
       <use xlink:href="#m71944ba590" x="622.636364" y="384.48" style="stroke: #000000; stroke-width: 0.8"/>
      </g>
     </g>
     <g id="text_7">
      <!-- 60 -->
      <g transform="translate(616.273864 399.078438) scale(0.1 -0.1)">
       <defs>
        <path id="DejaVuSans-36" d="M 2113 2584 
Q 1688 2584 1439 2293 
Q 1191 2003 1191 1497 
Q 1191 994 1439 701 
Q 1688 409 2113 409 
Q 2538 409 2786 701 
Q 3034 994 3034 1497 
Q 3034 2003 2786 2293 
Q 2538 2584 2113 2584 
z
M 3366 4563 
L 3366 3988 
Q 3128 4100 2886 4159 
Q 2644 4219 2406 4219 
Q 1781 4219 1451 3797 
Q 1122 3375 1075 2522 
Q 1259 2794 1537 2939 
Q 1816 3084 2150 3084 
Q 2853 3084 3261 2657 
Q 3669 2231 3669 1497 
Q 3669 778 3244 343 
Q 2819 -91 2113 -91 
Q 1303 -91 875 529 
Q 447 1150 447 2328 
Q 447 3434 972 4092 
Q 1497 4750 2381 4750 
Q 2619 4750 2861 4703 
Q 3103 4656 3366 4563 
z
" transform="scale(0.015625)"/>
       </defs>
       <use xlink:href="#DejaVuSans-36"/>
       <use xlink:href="#DejaVuSans-30" x="63.623047"/>
      </g>
     </g>
    </g>
    <g id="text_8">
     <!-- Time (minutes) -->
     <g transform="translate(331.0375 412.756563) scale(0.1 -0.1)">
      <defs>
       <path id="DejaVuSans-54" d="M -19 4666 
L 3928 4666 
L 3928 4134 
L 2272 4134 
L 2272 0 
L 1638 0 
L 1638 4134 
L -19 4134 
L -19 4666 
z
" transform="scale(0.015625)"/>
       <path id="DejaVuSans-69" d="M 603 3500 
L 1178 3500 
L 1178 0 
L 603 0 
L 603 3500 
z
M 603 4863 
L 1178 4863 
L 1178 4134 
L 603 4134 
L 603 4863 
z
" transform="scale(0.015625)"/>
       <path id="DejaVuSans-6d" d="M 3328 2828 
Q 3544 3216 3844 3400 
Q 4144 3584 4550 3584 
Q 5097 3584 5394 3201 
Q 5691 2819 5691 2113 
L 5691 0 
L 5113 0 
L 5113 2094 
Q 5113 2597 4934 2840 
Q 4756 3084 4391 3084 
Q 3944 3084 3684 2787 
Q 3425 2491 3425 1978 
L 3425 0 
L 2847 0 
L 2847 2094 
Q 2847 2600 2669 2842 
Q 2491 3084 2119 3084 
Q 1678 3084 1418 2786 
Q 1159 2488 1159 1978 
L 1159 0 
L 581 0 
L 581 3500 
L 1159 3500 
L 1159 2956 
Q 1356 3278 1631 3431 
Q 1906 3584 2284 3584 
Q 2666 3584 2933 3390 
Q 3200 3197 3328 2828 
z
" transform="scale(0.015625)"/>
       <path id="DejaVuSans-65" d="M 3597 1894 
L 3597 1613 
L 953 1613 
Q 991 1019 1311 708 
Q 1631 397 2203 397 
Q 2534 397 2845 478 
Q 3156 559 3463 722 
L 3463 178 
Q 3153 47 2828 -22 
Q 2503 -91 2169 -91 
Q 1331 -91 842 396 
Q 353 884 353 1716 
Q 353 2575 817 3079 
Q 1281 3584 2069 3584 
Q 2775 3584 3186 3129 
Q 3597 2675 3597 1894 
z
M 3022 2063 
Q 3016 2534 2758 2815 
Q 2500 3097 2075 3097 
Q 1594 3097 1305 2825 
Q 1016 2553 972 2059 
L 3022 2063 
z
" transform="scale(0.015625)"/>
       <path id="DejaVuSans-20" transform="scale(0.015625)"/>
       <path id="DejaVuSans-28" d="M 1984 4856 
Q 1566 4138 1362 3434 
Q 1159 2731 1159 2009 
Q 1159 1288 1364 580 
Q 1569 -128 1984 -844 
L 1484 -844 
Q 1016 -109 783 600 
Q 550 1309 550 2009 
Q 550 2706 781 3412 
Q 1013 4119 1484 4856 
L 1984 4856 
z
" transform="scale(0.015625)"/>
       <path id="DejaVuSans-6e" d="M 3513 2113 
L 3513 0 
L 2938 0 
L 2938 2094 
Q 2938 2591 2744 2837 
Q 2550 3084 2163 3084 
Q 1697 3084 1428 2787 
Q 1159 2491 1159 1978 
L 1159 0 
L 581 0 
L 581 3500 
L 1159 3500 
L 1159 2956 
Q 1366 3272 1645 3428 
Q 1925 3584 2291 3584 
Q 2894 3584 3203 3211 
Q 3513 2838 3513 2113 
z
" transform="scale(0.015625)"/>
       <path id="DejaVuSans-75" d="M 544 1381 
L 544 3500 
L 1119 3500 
L 1119 1403 
Q 1119 906 1312 657 
Q 1506 409 1894 409 
Q 2359 409 2629 706 
Q 2900 1003 2900 1516 
L 2900 3500 
L 3475 3500 
L 3475 0 
L 2900 0 
L 2900 538 
Q 2691 219 2414 64 
Q 2138 -91 1772 -91 
Q 1169 -91 856 284 
Q 544 659 544 1381 
z
M 1991 3584 
L 1991 3584 
z
" transform="scale(0.015625)"/>
       <path id="DejaVuSans-74" d="M 1172 4494 
L 1172 3500 
L 2356 3500 
L 2356 3053 
L 1172 3053 
L 1172 1153 
Q 1172 725 1289 603 
Q 1406 481 1766 481 
L 2356 481 
L 2356 0 
L 1766 0 
Q 1100 0 847 248 
Q 594 497 594 1153 
L 594 3053 
L 172 3053 
L 172 3500 
L 594 3500 
L 594 4494 
L 1172 4494 
z
" transform="scale(0.015625)"/>
       <path id="DejaVuSans-73" d="M 2834 3397 
L 2834 2853 
Q 2591 2978 2328 3040 
Q 2066 3103 1784 3103 
Q 1356 3103 1142 2972 
Q 928 2841 928 2578 
Q 928 2378 1081 2264 
Q 1234 2150 1697 2047 
L 1894 2003 
Q 2506 1872 2764 1633 
Q 3022 1394 3022 966 
Q 3022 478 2636 193 
Q 2250 -91 1575 -91 
Q 1294 -91 989 -36 
Q 684 19 347 128 
L 347 722 
Q 666 556 975 473 
Q 1284 391 1588 391 
Q 1994 391 2212 530 
Q 2431 669 2431 922 
Q 2431 1156 2273 1281 
Q 2116 1406 1581 1522 
L 1381 1569 
Q 847 1681 609 1914 
Q 372 2147 372 2553 
Q 372 3047 722 3315 
Q 1072 3584 1716 3584 
Q 2034 3584 2315 3537 
Q 2597 3491 2834 3397 
z
" transform="scale(0.015625)"/>
       <path id="DejaVuSans-29" d="M 513 4856 
L 1013 4856 
Q 1481 4119 1714 3412 
Q 1947 2706 1947 2009 
Q 1947 1309 1714 600 
Q 1481 -109 1013 -844 
L 513 -844 
Q 928 -128 1133 580 
Q 1338 1288 1338 2009 
Q 1338 2731 1133 3434 
Q 928 4138 513 4856 
z
" transform="scale(0.015625)"/>
      </defs>
      <use xlink:href="#DejaVuSans-54"/>
      <use xlink:href="#DejaVuSans-69" x="57.958984"/>
      <use xlink:href="#DejaVuSans-6d" x="85.742188"/>
      <use xlink:href="#DejaVuSans-65" x="183.154297"/>
      <use xlink:href="#DejaVuSans-20" x="244.677734"/>
      <use xlink:href="#DejaVuSans-28" x="276.464844"/>
      <use xlink:href="#DejaVuSans-6d" x="315.478516"/>
      <use xlink:href="#DejaVuSans-69" x="412.890625"/>
      <use xlink:href="#DejaVuSans-6e" x="440.673828"/>
      <use xlink:href="#DejaVuSans-75" x="504.052734"/>
      <use xlink:href="#DejaVuSans-74" x="567.431641"/>
      <use xlink:href="#DejaVuSans-65" x="606.640625"/>
      <use xlink:href="#DejaVuSans-73" x="668.164062"/>
      <use xlink:href="#DejaVuSans-29" x="720.263672"/>
     </g>
    </g>
   </g>
   <g id="matplotlib.axis_2">
    <g id="ytick_1">
     <g id="line2d_15">
      <path d="M 90 375.658887 
L 648 375.658887 
" clip-path="url(#p391f6ac3f4)" style="fill: none; stroke: #b0b0b0; stroke-width: 0.8; stroke-linecap: square"/>
     </g>
     <g id="line2d_16">
      <defs>
       <path id="mb2bc270ecc" d="M 0 0 
L -3.5 0 
" style="stroke: #000000; stroke-width: 0.8"/>
      </defs>
      <g>
       <use xlink:href="#mb2bc270ecc" x="90" y="375.658887" style="stroke: #000000; stroke-width: 0.8"/>
      </g>
     </g>
     <g id="text_9">
      <!-- 6 -->
      <g transform="translate(76.6375 379.458105) scale(0.1 -0.1)">
       <use xlink:href="#DejaVuSans-36"/>
      </g>
     </g>
    </g>
    <g id="ytick_2">
     <g id="line2d_17">
      <path d="M 90 331.559046 
L 648 331.559046 
" clip-path="url(#p391f6ac3f4)" style="fill: none; stroke: #b0b0b0; stroke-width: 0.8; stroke-linecap: square"/>
     </g>
     <g id="line2d_18">
      <g>
       <use xlink:href="#mb2bc270ecc" x="90" y="331.559046" style="stroke: #000000; stroke-width: 0.8"/>
      </g>
     </g>
     <g id="text_10">
      <!-- 8 -->
      <g transform="translate(76.6375 335.358264) scale(0.1 -0.1)">
       <defs>
        <path id="DejaVuSans-38" d="M 2034 2216 
Q 1584 2216 1326 1975 
Q 1069 1734 1069 1313 
Q 1069 891 1326 650 
Q 1584 409 2034 409 
Q 2484 409 2743 651 
Q 3003 894 3003 1313 
Q 3003 1734 2745 1975 
Q 2488 2216 2034 2216 
z
M 1403 2484 
Q 997 2584 770 2862 
Q 544 3141 544 3541 
Q 544 4100 942 4425 
Q 1341 4750 2034 4750 
Q 2731 4750 3128 4425 
Q 3525 4100 3525 3541 
Q 3525 3141 3298 2862 
Q 3072 2584 2669 2484 
Q 3125 2378 3379 2068 
Q 3634 1759 3634 1313 
Q 3634 634 3220 271 
Q 2806 -91 2034 -91 
Q 1263 -91 848 271 
Q 434 634 434 1313 
Q 434 1759 690 2068 
Q 947 2378 1403 2484 
z
M 1172 3481 
Q 1172 3119 1398 2916 
Q 1625 2713 2034 2713 
Q 2441 2713 2670 2916 
Q 2900 3119 2900 3481 
Q 2900 3844 2670 4047 
Q 2441 4250 2034 4250 
Q 1625 4250 1398 4047 
Q 1172 3844 1172 3481 
z
" transform="scale(0.015625)"/>
       </defs>
       <use xlink:href="#DejaVuSans-38"/>
      </g>
     </g>
    </g>
    <g id="ytick_3">
     <g id="line2d_19">
      <path d="M 90 287.459205 
L 648 287.459205 
" clip-path="url(#p391f6ac3f4)" style="fill: none; stroke: #b0b0b0; stroke-width: 0.8; stroke-linecap: square"/>
     </g>
     <g id="line2d_20">
      <g>
       <use xlink:href="#mb2bc270ecc" x="90" y="287.459205" style="stroke: #000000; stroke-width: 0.8"/>
      </g>
     </g>
     <g id="text_11">
      <!-- 10 -->
      <g transform="translate(70.275 291.258424) scale(0.1 -0.1)">
       <use xlink:href="#DejaVuSans-31"/>
       <use xlink:href="#DejaVuSans-30" x="63.623047"/>
      </g>
     </g>
    </g>
    <g id="ytick_4">
     <g id="line2d_21">
      <path d="M 90 243.359364 
L 648 243.359364 
" clip-path="url(#p391f6ac3f4)" style="fill: none; stroke: #b0b0b0; stroke-width: 0.8; stroke-linecap: square"/>
     </g>
     <g id="line2d_22">
      <g>
       <use xlink:href="#mb2bc270ecc" x="90" y="243.359364" style="stroke: #000000; stroke-width: 0.8"/>
      </g>
     </g>
     <g id="text_12">
      <!-- 12 -->
      <g transform="translate(70.275 247.158583) scale(0.1 -0.1)">
       <use xlink:href="#DejaVuSans-31"/>
       <use xlink:href="#DejaVuSans-32" x="63.623047"/>
      </g>
     </g>
    </g>
    <g id="ytick_5">
     <g id="line2d_23">
      <path d="M 90 199.259523 
L 648 199.259523 
" clip-path="url(#p391f6ac3f4)" style="fill: none; stroke: #b0b0b0; stroke-width: 0.8; stroke-linecap: square"/>
     </g>
     <g id="line2d_24">
      <g>
       <use xlink:href="#mb2bc270ecc" x="90" y="199.259523" style="stroke: #000000; stroke-width: 0.8"/>
      </g>
     </g>
     <g id="text_13">
      <!-- 14 -->
      <g transform="translate(70.275 203.058742) scale(0.1 -0.1)">
       <use xlink:href="#DejaVuSans-31"/>
       <use xlink:href="#DejaVuSans-34" x="63.623047"/>
      </g>
     </g>
    </g>
    <g id="ytick_6">
     <g id="line2d_25">
      <path d="M 90 155.159682 
L 648 155.159682 
" clip-path="url(#p391f6ac3f4)" style="fill: none; stroke: #b0b0b0; stroke-width: 0.8; stroke-linecap: square"/>
     </g>
     <g id="line2d_26">
      <g>
       <use xlink:href="#mb2bc270ecc" x="90" y="155.159682" style="stroke: #000000; stroke-width: 0.8"/>
      </g>
     </g>
     <g id="text_14">
      <!-- 16 -->
      <g transform="translate(70.275 158.958901) scale(0.1 -0.1)">
       <use xlink:href="#DejaVuSans-31"/>
       <use xlink:href="#DejaVuSans-36" x="63.623047"/>
      </g>
     </g>
    </g>
    <g id="ytick_7">
     <g id="line2d_27">
      <path d="M 90 111.059841 
L 648 111.059841 
" clip-path="url(#p391f6ac3f4)" style="fill: none; stroke: #b0b0b0; stroke-width: 0.8; stroke-linecap: square"/>
     </g>
     <g id="line2d_28">
      <g>
       <use xlink:href="#mb2bc270ecc" x="90" y="111.059841" style="stroke: #000000; stroke-width: 0.8"/>
      </g>
     </g>
     <g id="text_15">
      <!-- 18 -->
      <g transform="translate(70.275 114.85906) scale(0.1 -0.1)">
       <use xlink:href="#DejaVuSans-31"/>
       <use xlink:href="#DejaVuSans-38" x="63.623047"/>
      </g>
     </g>
    </g>
    <g id="ytick_8">
     <g id="line2d_29">
      <path d="M 90 66.96 
L 648 66.96 
" clip-path="url(#p391f6ac3f4)" style="fill: none; stroke: #b0b0b0; stroke-width: 0.8; stroke-linecap: square"/>
     </g>
     <g id="line2d_30">
      <g>
       <use xlink:href="#mb2bc270ecc" x="90" y="66.96" style="stroke: #000000; stroke-width: 0.8"/>
      </g>
     </g>
     <g id="text_16">
      <!-- 20 -->
      <g transform="translate(70.275 70.759219) scale(0.1 -0.1)">
       <use xlink:href="#DejaVuSans-32"/>
       <use xlink:href="#DejaVuSans-30" x="63.623047"/>
      </g>
     </g>
    </g>
    <g id="text_17">
     <!-- Temperature (°C) -->
     <g transform="translate(64.195312 261.311562) rotate(-90) scale(0.1 -0.1)">
      <defs>
       <path id="DejaVuSans-70" d="M 1159 525 
L 1159 -1331 
L 581 -1331 
L 581 3500 
L 1159 3500 
L 1159 2969 
Q 1341 3281 1617 3432 
Q 1894 3584 2278 3584 
Q 2916 3584 3314 3078 
Q 3713 2572 3713 1747 
Q 3713 922 3314 415 
Q 2916 -91 2278 -91 
Q 1894 -91 1617 61 
Q 1341 213 1159 525 
z
M 3116 1747 
Q 3116 2381 2855 2742 
Q 2594 3103 2138 3103 
Q 1681 3103 1420 2742 
Q 1159 2381 1159 1747 
Q 1159 1113 1420 752 
Q 1681 391 2138 391 
Q 2594 391 2855 752 
Q 3116 1113 3116 1747 
z
" transform="scale(0.015625)"/>
       <path id="DejaVuSans-72" d="M 2631 2963 
Q 2534 3019 2420 3045 
Q 2306 3072 2169 3072 
Q 1681 3072 1420 2755 
Q 1159 2438 1159 1844 
L 1159 0 
L 581 0 
L 581 3500 
L 1159 3500 
L 1159 2956 
Q 1341 3275 1631 3429 
Q 1922 3584 2338 3584 
Q 2397 3584 2469 3576 
Q 2541 3569 2628 3553 
L 2631 2963 
z
" transform="scale(0.015625)"/>
       <path id="DejaVuSans-61" d="M 2194 1759 
Q 1497 1759 1228 1600 
Q 959 1441 959 1056 
Q 959 750 1161 570 
Q 1363 391 1709 391 
Q 2188 391 2477 730 
Q 2766 1069 2766 1631 
L 2766 1759 
L 2194 1759 
z
M 3341 1997 
L 3341 0 
L 2766 0 
L 2766 531 
Q 2569 213 2275 61 
Q 1981 -91 1556 -91 
Q 1019 -91 701 211 
Q 384 513 384 1019 
Q 384 1609 779 1909 
Q 1175 2209 1959 2209 
L 2766 2209 
L 2766 2266 
Q 2766 2663 2505 2880 
Q 2244 3097 1772 3097 
Q 1472 3097 1187 3025 
Q 903 2953 641 2809 
L 641 3341 
Q 956 3463 1253 3523 
Q 1550 3584 1831 3584 
Q 2591 3584 2966 3190 
Q 3341 2797 3341 1997 
z
" transform="scale(0.015625)"/>
       <path id="DejaVuSans-b0" d="M 1600 4347 
Q 1350 4347 1178 4173 
Q 1006 4000 1006 3750 
Q 1006 3503 1178 3333 
Q 1350 3163 1600 3163 
Q 1850 3163 2022 3333 
Q 2194 3503 2194 3750 
Q 2194 3997 2020 4172 
Q 1847 4347 1600 4347 
z
M 1600 4750 
Q 1800 4750 1984 4673 
Q 2169 4597 2303 4453 
Q 2447 4313 2519 4134 
Q 2591 3956 2591 3750 
Q 2591 3338 2302 3052 
Q 2013 2766 1594 2766 
Q 1172 2766 890 3047 
Q 609 3328 609 3750 
Q 609 4169 896 4459 
Q 1184 4750 1600 4750 
z
" transform="scale(0.015625)"/>
       <path id="DejaVuSans-43" d="M 4122 4306 
L 4122 3641 
Q 3803 3938 3442 4084 
Q 3081 4231 2675 4231 
Q 1875 4231 1450 3742 
Q 1025 3253 1025 2328 
Q 1025 1406 1450 917 
Q 1875 428 2675 428 
Q 3081 428 3442 575 
Q 3803 722 4122 1019 
L 4122 359 
Q 3791 134 3420 21 
Q 3050 -91 2638 -91 
Q 1578 -91 968 557 
Q 359 1206 359 2328 
Q 359 3453 968 4101 
Q 1578 4750 2638 4750 
Q 3056 4750 3426 4639 
Q 3797 4528 4122 4306 
z
" transform="scale(0.015625)"/>
      </defs>
      <use xlink:href="#DejaVuSans-54"/>
      <use xlink:href="#DejaVuSans-65" x="44.083984"/>
      <use xlink:href="#DejaVuSans-6d" x="105.607422"/>
      <use xlink:href="#DejaVuSans-70" x="203.019531"/>
      <use xlink:href="#DejaVuSans-65" x="266.496094"/>
      <use xlink:href="#DejaVuSans-72" x="328.019531"/>
      <use xlink:href="#DejaVuSans-61" x="369.132812"/>
      <use xlink:href="#DejaVuSans-74" x="430.412109"/>
      <use xlink:href="#DejaVuSans-75" x="469.621094"/>
      <use xlink:href="#DejaVuSans-72" x="533"/>
      <use xlink:href="#DejaVuSans-65" x="571.863281"/>
      <use xlink:href="#DejaVuSans-20" x="633.386719"/>
      <use xlink:href="#DejaVuSans-28" x="665.173828"/>
      <use xlink:href="#DejaVuSans-b0" x="704.1875"/>
      <use xlink:href="#DejaVuSans-43" x="754.1875"/>
      <use xlink:href="#DejaVuSans-29" x="824.011719"/>
     </g>
    </g>
   </g>
   <g id="line2d_31">
    <path d="M 115.363636 66.96 
L 123.961479 96.065895 
L 132.559322 122.377624 
L 141.157165 146.163427 
L 149.755008 167.665793 
L 158.352851 187.103932 
L 166.950693 204.67601 
L 175.548536 220.561168 
L 184.146379 234.921351 
L 192.744222 247.902956 
L 201.342065 259.638327 
L 209.939908 270.247103 
L 218.53775 279.837436 
L 227.135593 288.507097 
L 235.733436 296.344471 
L 244.331279 303.429457 
L 252.929122 309.834284 
L 261.526965 315.624248 
L 270.124807 320.858375 
L 278.72265 325.590026 
L 287.320493 329.867439 
L 295.918336 333.734219 
L 304.516179 337.229789 
L 313.114022 340.389785 
L 321.711864 343.24642 
L 330.309707 345.828819 
L 338.90755 348.163307 
L 347.505393 350.273685 
L 356.103236 352.181466 
L 364.701079 353.9061 
L 373.298921 355.46517 
L 381.896764 356.874569 
L 390.494607 358.148665 
L 399.09245 359.300448 
L 407.690293 360.34166 
L 416.288136 361.282916 
L 424.885978 362.133811 
L 433.483821 362.90302 
L 442.081664 363.598385 
L 450.679507 364.226995 
L 459.27735 364.795259 
L 467.875193 365.308969 
L 476.473035 365.773363 
L 485.070878 366.193175 
L 493.668721 366.572685 
L 502.266564 366.915763 
L 510.864407 367.225904 
L 519.46225 367.506273 
L 528.060092 367.759725 
L 536.657935 367.988847 
L 545.255778 368.195973 
L 553.853621 368.383214 
L 562.451464 368.552481 
L 571.049307 368.705498 
L 579.647149 368.843825 
L 588.244992 368.968873 
L 596.842835 369.081916 
L 605.440678 369.184107 
L 614.038521 369.276488 
L 622.636364 369.36 
" clip-path="url(#p391f6ac3f4)" style="fill: none; stroke: #1f77b4; stroke-width: 1.5; stroke-linecap: square"/>
    <defs>
     <path id="mff3f5bf252" d="M 0 3 
C 0.795609 3 1.55874 2.683901 2.12132 2.12132 
C 2.683901 1.55874 3 0.795609 3 0 
C 3 -0.795609 2.683901 -1.55874 2.12132 -2.12132 
C 1.55874 -2.683901 0.795609 -3 0 -3 
C -0.795609 -3 -1.55874 -2.683901 -2.12132 -2.12132 
C -2.683901 -1.55874 -3 -0.795609 -3 0 
C -3 0.795609 -2.683901 1.55874 -2.12132 2.12132 
C -1.55874 2.683901 -0.795609 3 0 3 
z
" style="stroke: #1f77b4"/>
    </defs>
    <g clip-path="url(#p391f6ac3f4)">
     <use xlink:href="#mff3f5bf252" x="115.363636" y="66.96" style="fill: #1f77b4; stroke: #1f77b4"/>
     <use xlink:href="#mff3f5bf252" x="123.961479" y="96.065895" style="fill: #1f77b4; stroke: #1f77b4"/>
     <use xlink:href="#mff3f5bf252" x="132.559322" y="122.377624" style="fill: #1f77b4; stroke: #1f77b4"/>
     <use xlink:href="#mff3f5bf252" x="141.157165" y="146.163427" style="fill: #1f77b4; stroke: #1f77b4"/>
     <use xlink:href="#mff3f5bf252" x="149.755008" y="167.665793" style="fill: #1f77b4; stroke: #1f77b4"/>
     <use xlink:href="#mff3f5bf252" x="158.352851" y="187.103932" style="fill: #1f77b4; stroke: #1f77b4"/>
     <use xlink:href="#mff3f5bf252" x="166.950693" y="204.67601" style="fill: #1f77b4; stroke: #1f77b4"/>
     <use xlink:href="#mff3f5bf252" x="175.548536" y="220.561168" style="fill: #1f77b4; stroke: #1f77b4"/>
     <use xlink:href="#mff3f5bf252" x="184.146379" y="234.921351" style="fill: #1f77b4; stroke: #1f77b4"/>
     <use xlink:href="#mff3f5bf252" x="192.744222" y="247.902956" style="fill: #1f77b4; stroke: #1f77b4"/>
     <use xlink:href="#mff3f5bf252" x="201.342065" y="259.638327" style="fill: #1f77b4; stroke: #1f77b4"/>
     <use xlink:href="#mff3f5bf252" x="209.939908" y="270.247103" style="fill: #1f77b4; stroke: #1f77b4"/>
     <use xlink:href="#mff3f5bf252" x="218.53775" y="279.837436" style="fill: #1f77b4; stroke: #1f77b4"/>
     <use xlink:href="#mff3f5bf252" x="227.135593" y="288.507097" style="fill: #1f77b4; stroke: #1f77b4"/>
     <use xlink:href="#mff3f5bf252" x="235.733436" y="296.344471" style="fill: #1f77b4; stroke: #1f77b4"/>
     <use xlink:href="#mff3f5bf252" x="244.331279" y="303.429457" style="fill: #1f77b4; stroke: #1f77b4"/>
     <use xlink:href="#mff3f5bf252" x="252.929122" y="309.834284" style="fill: #1f77b4; stroke: #1f77b4"/>
     <use xlink:href="#mff3f5bf252" x="261.526965" y="315.624248" style="fill: #1f77b4; stroke: #1f77b4"/>
     <use xlink:href="#mff3f5bf252" x="270.124807" y="320.858375" style="fill: #1f77b4; stroke: #1f77b4"/>
     <use xlink:href="#mff3f5bf252" x="278.72265" y="325.590026" style="fill: #1f77b4; stroke: #1f77b4"/>
     <use xlink:href="#mff3f5bf252" x="287.320493" y="329.867439" style="fill: #1f77b4; stroke: #1f77b4"/>
     <use xlink:href="#mff3f5bf252" x="295.918336" y="333.734219" style="fill: #1f77b4; stroke: #1f77b4"/>
     <use xlink:href="#mff3f5bf252" x="304.516179" y="337.229789" style="fill: #1f77b4; stroke: #1f77b4"/>
     <use xlink:href="#mff3f5bf252" x="313.114022" y="340.389785" style="fill: #1f77b4; stroke: #1f77b4"/>
     <use xlink:href="#mff3f5bf252" x="321.711864" y="343.24642" style="fill: #1f77b4; stroke: #1f77b4"/>
     <use xlink:href="#mff3f5bf252" x="330.309707" y="345.828819" style="fill: #1f77b4; stroke: #1f77b4"/>
     <use xlink:href="#mff3f5bf252" x="338.90755" y="348.163307" style="fill: #1f77b4; stroke: #1f77b4"/>
     <use xlink:href="#mff3f5bf252" x="347.505393" y="350.273685" style="fill: #1f77b4; stroke: #1f77b4"/>
     <use xlink:href="#mff3f5bf252" x="356.103236" y="352.181466" style="fill: #1f77b4; stroke: #1f77b4"/>
     <use xlink:href="#mff3f5bf252" x="364.701079" y="353.9061" style="fill: #1f77b4; stroke: #1f77b4"/>
     <use xlink:href="#mff3f5bf252" x="373.298921" y="355.46517" style="fill: #1f77b4; stroke: #1f77b4"/>
     <use xlink:href="#mff3f5bf252" x="381.896764" y="356.874569" style="fill: #1f77b4; stroke: #1f77b4"/>
     <use xlink:href="#mff3f5bf252" x="390.494607" y="358.148665" style="fill: #1f77b4; stroke: #1f77b4"/>
     <use xlink:href="#mff3f5bf252" x="399.09245" y="359.300448" style="fill: #1f77b4; stroke: #1f77b4"/>
     <use xlink:href="#mff3f5bf252" x="407.690293" y="360.34166" style="fill: #1f77b4; stroke: #1f77b4"/>
     <use xlink:href="#mff3f5bf252" x="416.288136" y="361.282916" style="fill: #1f77b4; stroke: #1f77b4"/>
     <use xlink:href="#mff3f5bf252" x="424.885978" y="362.133811" style="fill: #1f77b4; stroke: #1f77b4"/>
     <use xlink:href="#mff3f5bf252" x="433.483821" y="362.90302" style="fill: #1f77b4; stroke: #1f77b4"/>
     <use xlink:href="#mff3f5bf252" x="442.081664" y="363.598385" style="fill: #1f77b4; stroke: #1f77b4"/>
     <use xlink:href="#mff3f5bf252" x="450.679507" y="364.226995" style="fill: #1f77b4; stroke: #1f77b4"/>
     <use xlink:href="#mff3f5bf252" x="459.27735" y="364.795259" style="fill: #1f77b4; stroke: #1f77b4"/>
     <use xlink:href="#mff3f5bf252" x="467.875193" y="365.308969" style="fill: #1f77b4; stroke: #1f77b4"/>
     <use xlink:href="#mff3f5bf252" x="476.473035" y="365.773363" style="fill: #1f77b4; stroke: #1f77b4"/>
     <use xlink:href="#mff3f5bf252" x="485.070878" y="366.193175" style="fill: #1f77b4; stroke: #1f77b4"/>
     <use xlink:href="#mff3f5bf252" x="493.668721" y="366.572685" style="fill: #1f77b4; stroke: #1f77b4"/>
     <use xlink:href="#mff3f5bf252" x="502.266564" y="366.915763" style="fill: #1f77b4; stroke: #1f77b4"/>
     <use xlink:href="#mff3f5bf252" x="510.864407" y="367.225904" style="fill: #1f77b4; stroke: #1f77b4"/>
     <use xlink:href="#mff3f5bf252" x="519.46225" y="367.506273" style="fill: #1f77b4; stroke: #1f77b4"/>
     <use xlink:href="#mff3f5bf252" x="528.060092" y="367.759725" style="fill: #1f77b4; stroke: #1f77b4"/>
     <use xlink:href="#mff3f5bf252" x="536.657935" y="367.988847" style="fill: #1f77b4; stroke: #1f77b4"/>
     <use xlink:href="#mff3f5bf252" x="545.255778" y="368.195973" style="fill: #1f77b4; stroke: #1f77b4"/>
     <use xlink:href="#mff3f5bf252" x="553.853621" y="368.383214" style="fill: #1f77b4; stroke: #1f77b4"/>
     <use xlink:href="#mff3f5bf252" x="562.451464" y="368.552481" style="fill: #1f77b4; stroke: #1f77b4"/>
     <use xlink:href="#mff3f5bf252" x="571.049307" y="368.705498" style="fill: #1f77b4; stroke: #1f77b4"/>
     <use xlink:href="#mff3f5bf252" x="579.647149" y="368.843825" style="fill: #1f77b4; stroke: #1f77b4"/>
     <use xlink:href="#mff3f5bf252" x="588.244992" y="368.968873" style="fill: #1f77b4; stroke: #1f77b4"/>
     <use xlink:href="#mff3f5bf252" x="596.842835" y="369.081916" style="fill: #1f77b4; stroke: #1f77b4"/>
     <use xlink:href="#mff3f5bf252" x="605.440678" y="369.184107" style="fill: #1f77b4; stroke: #1f77b4"/>
     <use xlink:href="#mff3f5bf252" x="614.038521" y="369.276488" style="fill: #1f77b4; stroke: #1f77b4"/>
     <use xlink:href="#mff3f5bf252" x="622.636364" y="369.36" style="fill: #1f77b4; stroke: #1f77b4"/>
    </g>
   </g>
   <g id="patch_3">
    <path d="M 90 384.48 
L 90 51.84 
" style="fill: none; stroke: #000000; stroke-width: 0.8; stroke-linejoin: miter; stroke-linecap: square"/>
   </g>
   <g id="patch_4">
    <path d="M 648 384.48 
L 648 51.84 
" style="fill: none; stroke: #000000; stroke-width: 0.8; stroke-linejoin: miter; stroke-linecap: square"/>
   </g>
   <g id="patch_5">
    <path d="M 90 384.48 
L 648 384.48 
" style="fill: none; stroke: #000000; stroke-width: 0.8; stroke-linejoin: miter; stroke-linecap: square"/>
   </g>
   <g id="patch_6">
    <path d="M 90 51.84 
L 648 51.84 
" style="fill: none; stroke: #000000; stroke-width: 0.8; stroke-linejoin: miter; stroke-linecap: square"/>
   </g>
   <g id="text_18">
    <!-- Room Temperature Over Time -->
    <g transform="translate(279.076875 45.84) scale(0.12 -0.12)">
     <defs>
      <path id="DejaVuSans-52" d="M 2841 2188 
Q 3044 2119 3236 1894 
Q 3428 1669 3622 1275 
L 4263 0 
L 3584 0 
L 2988 1197 
Q 2756 1666 2539 1819 
Q 2322 1972 1947 1972 
L 1259 1972 
L 1259 0 
L 628 0 
L 628 4666 
L 2053 4666 
Q 2853 4666 3247 4331 
Q 3641 3997 3641 3322 
Q 3641 2881 3436 2590 
Q 3231 2300 2841 2188 
z
M 1259 4147 
L 1259 2491 
L 2053 2491 
Q 2509 2491 2742 2702 
Q 2975 2913 2975 3322 
Q 2975 3731 2742 3939 
Q 2509 4147 2053 4147 
L 1259 4147 
z
" transform="scale(0.015625)"/>
      <path id="DejaVuSans-6f" d="M 1959 3097 
Q 1497 3097 1228 2736 
Q 959 2375 959 1747 
Q 959 1119 1226 758 
Q 1494 397 1959 397 
Q 2419 397 2687 759 
Q 2956 1122 2956 1747 
Q 2956 2369 2687 2733 
Q 2419 3097 1959 3097 
z
M 1959 3584 
Q 2709 3584 3137 3096 
Q 3566 2609 3566 1747 
Q 3566 888 3137 398 
Q 2709 -91 1959 -91 
Q 1206 -91 779 398 
Q 353 888 353 1747 
Q 353 2609 779 3096 
Q 1206 3584 1959 3584 
z
" transform="scale(0.015625)"/>
      <path id="DejaVuSans-4f" d="M 2522 4238 
Q 1834 4238 1429 3725 
Q 1025 3213 1025 2328 
Q 1025 1447 1429 934 
Q 1834 422 2522 422 
Q 3209 422 3611 934 
Q 4013 1447 4013 2328 
Q 4013 3213 3611 3725 
Q 3209 4238 2522 4238 
z
M 2522 4750 
Q 3503 4750 4090 4092 
Q 4678 3434 4678 2328 
Q 4678 1225 4090 567 
Q 3503 -91 2522 -91 
Q 1538 -91 948 565 
Q 359 1222 359 2328 
Q 359 3434 948 4092 
Q 1538 4750 2522 4750 
z
" transform="scale(0.015625)"/>
      <path id="DejaVuSans-76" d="M 191 3500 
L 800 3500 
L 1894 563 
L 2988 3500 
L 3597 3500 
L 2284 0 
L 1503 0 
L 191 3500 
z
" transform="scale(0.015625)"/>
     </defs>
     <use xlink:href="#DejaVuSans-52"/>
     <use xlink:href="#DejaVuSans-6f" x="64.982422"/>
     <use xlink:href="#DejaVuSans-6f" x="126.164062"/>
     <use xlink:href="#DejaVuSans-6d" x="187.345703"/>
     <use xlink:href="#DejaVuSans-20" x="284.757812"/>
     <use xlink:href="#DejaVuSans-54" x="316.544922"/>
     <use xlink:href="#DejaVuSans-65" x="360.628906"/>
     <use xlink:href="#DejaVuSans-6d" x="422.152344"/>
     <use xlink:href="#DejaVuSans-70" x="519.564453"/>
     <use xlink:href="#DejaVuSans-65" x="583.041016"/>
     <use xlink:href="#DejaVuSans-72" x="644.564453"/>
     <use xlink:href="#DejaVuSans-61" x="685.677734"/>
     <use xlink:href="#DejaVuSans-74" x="746.957031"/>
     <use xlink:href="#DejaVuSans-75" x="786.166016"/>
     <use xlink:href="#DejaVuSans-72" x="849.544922"/>
     <use xlink:href="#DejaVuSans-65" x="888.408203"/>
     <use xlink:href="#DejaVuSans-20" x="949.931641"/>
     <use xlink:href="#DejaVuSans-4f" x="981.71875"/>
     <use xlink:href="#DejaVuSans-76" x="1060.429688"/>
     <use xlink:href="#DejaVuSans-65" x="1119.609375"/>
     <use xlink:href="#DejaVuSans-72" x="1181.132812"/>
     <use xlink:href="#DejaVuSans-20" x="1222.246094"/>
     <use xlink:href="#DejaVuSans-54" x="1254.033203"/>
     <use xlink:href="#DejaVuSans-69" x="1311.992188"/>
     <use xlink:href="#DejaVuSans-6d" x="1339.775391"/>
     <use xlink:href="#DejaVuSans-65" x="1437.1875"/>
    </g>
   </g>
   <g id="legend_1">
    <g id="patch_7">
     <path d="M 514.00625 74.518125 
L 641 74.518125 
Q 643 74.518125 643 72.518125 
L 643 58.84 
Q 643 56.84 641 56.84 
L 514.00625 56.84 
Q 512.00625 56.84 512.00625 58.84 
L 512.00625 72.518125 
Q 512.00625 74.518125 514.00625 74.518125 
z
" style="fill: #ffffff; opacity: 0.8; stroke: #cccccc; stroke-linejoin: miter"/>
    </g>
    <g id="line2d_32">
     <path d="M 516.00625 64.938438 
L 526.00625 64.938438 
L 536.00625 64.938438 
" style="fill: none; stroke: #1f77b4; stroke-width: 1.5; stroke-linecap: square"/>
     <g>
      <use xlink:href="#mff3f5bf252" x="526.00625" y="64.938438" style="fill: #1f77b4; stroke: #1f77b4"/>
     </g>
    </g>
    <g id="text_19">
     <!-- Room Temperature -->
     <g transform="translate(544.00625 68.438438) scale(0.1 -0.1)">
      <use xlink:href="#DejaVuSans-52"/>
      <use xlink:href="#DejaVuSans-6f" x="64.982422"/>
      <use xlink:href="#DejaVuSans-6f" x="126.164062"/>
      <use xlink:href="#DejaVuSans-6d" x="187.345703"/>
      <use xlink:href="#DejaVuSans-20" x="284.757812"/>
      <use xlink:href="#DejaVuSans-54" x="316.544922"/>
      <use xlink:href="#DejaVuSans-65" x="360.628906"/>
      <use xlink:href="#DejaVuSans-6d" x="422.152344"/>
      <use xlink:href="#DejaVuSans-70" x="519.564453"/>
      <use xlink:href="#DejaVuSans-65" x="583.041016"/>
      <use xlink:href="#DejaVuSans-72" x="644.564453"/>
      <use xlink:href="#DejaVuSans-61" x="685.677734"/>
      <use xlink:href="#DejaVuSans-74" x="746.957031"/>
      <use xlink:href="#DejaVuSans-75" x="786.166016"/>
      <use xlink:href="#DejaVuSans-72" x="849.544922"/>
      <use xlink:href="#DejaVuSans-65" x="888.408203"/>
     </g>
    </g>
   </g>
  </g>
 </g>
 <defs>
  <clipPath id="p391f6ac3f4">
   <rect x="90" y="51.84" width="558" height="332.64"/>
  </clipPath>
 </defs>
</svg>
