<?xml version="1.0" encoding="utf-8"?>
<!-- Generator: Adobe Illustrator 25.1.0, SVG Export Plug-In . SVG Version: 6.00 Build 0)  -->
<svg version="1.1" id="レイヤー_1" xmlns="http://www.w3.org/2000/svg" xmlns:xlink="http://www.w3.org/1999/xlink" x="0px"
	 y="0px" viewBox="0 0 256 255" style="enable-background:new 0 0 256 255;" xml:space="preserve">
<style type="text/css">
	.st0{fill:#FFFFFF;}
	.st1{fill:url(#SVGID_1_);}
	.st2{fill:url(#SVGID_2_);}
</style>
<g>
	<image style="overflow:visible;" width="1135" height="568" xlink:href="3851F629.png"  transform="matrix(1 0 0 1 -599 -145)">
	</image>
	<g>
		<g>
			<path class="st0" d="M-126.5,308.6h1.9l-5.6,15.6h-1.8l-5.6-15.6h1.9l3.6,10.1c0.4,1.2,0.7,2.3,1,3.4c0.3-1.2,0.6-2.3,1-3.4
				L-126.5,308.6z"/>
			<path class="st0" d="M-113.7,324.1h-8.7v-15.6h8.7v1.6h-6.9v5h6.5v1.6h-6.5v5.7h6.9V324.1z"/>
			<path class="st0" d="M-103.6,309.9c-1.7,0-3.1,0.6-4.1,1.7c-1,1.1-1.5,2.7-1.5,4.7c0,2,0.5,3.6,1.4,4.7c1,1.1,2.3,1.7,4.1,1.7
				c1.1,0,2.3-0.2,3.7-0.6v1.6c-1.1,0.4-2.4,0.6-4,0.6c-2.3,0-4.1-0.7-5.3-2.1c-1.2-1.4-1.9-3.4-1.9-5.9c0-1.6,0.3-3,0.9-4.2
				c0.6-1.2,1.5-2.1,2.6-2.8c1.1-0.7,2.5-1,4-1c1.6,0,3.1,0.3,4.3,0.9l-0.8,1.6C-101.2,310.2-102.4,309.9-103.6,309.9z"/>
			<path class="st0" d="M-91.7,324.1h-1.8v-14h-4.9v-1.6h11.7v1.6h-4.9V324.1z"/>
			<path class="st0" d="M-70.9,316.3c0,2.5-0.6,4.5-1.9,5.9c-1.3,1.4-3,2.1-5.3,2.1c-2.3,0-4.1-0.7-5.3-2.1
				c-1.2-1.4-1.9-3.4-1.9-5.9c0-2.5,0.6-4.5,1.9-5.9c1.2-1.4,3-2.1,5.3-2.1c2.2,0,4,0.7,5.2,2.1C-71.5,311.9-70.9,313.8-70.9,316.3z
				 M-83.3,316.3c0,2.1,0.4,3.7,1.3,4.8c0.9,1.1,2.2,1.6,3.9,1.6c1.7,0,3-0.5,3.9-1.6c0.9-1.1,1.3-2.7,1.3-4.8
				c0-2.1-0.4-3.7-1.3-4.8c-0.9-1.1-2.2-1.6-3.9-1.6c-1.7,0-3,0.5-3.9,1.6C-82.9,312.6-83.3,314.2-83.3,316.3z"/>
			<path class="st0" d="M-65.6,317.6v6.5h-1.8v-15.6h4.3c1.9,0,3.3,0.4,4.2,1.1c0.9,0.7,1.4,1.8,1.4,3.3c0,2.1-1,3.5-3.1,4.2l4.2,7
				h-2.1l-3.8-6.5H-65.6z M-65.6,316.1h2.5c1.3,0,2.2-0.3,2.8-0.8c0.6-0.5,0.9-1.3,0.9-2.3c0-1-0.3-1.8-0.9-2.2
				c-0.6-0.5-1.6-0.7-2.9-0.7h-2.4V316.1z"/>
			<path class="st0" d="M-44.4,308.9h4.4c2.1,0,3.6,0.3,4.5,0.9c0.9,0.6,1.4,1.6,1.4,2.9c0,0.9-0.3,1.7-0.8,2.3
				c-0.5,0.6-1.3,1-2.3,1.2v0.1c2.4,0.4,3.5,1.6,3.5,3.7c0,1.4-0.5,2.5-1.4,3.3c-0.9,0.8-2.3,1.2-3.9,1.2h-5.4V308.9z M-42.6,315.6
				h3c1.3,0,2.2-0.2,2.8-0.6c0.6-0.4,0.8-1.1,0.8-2c0-0.9-0.3-1.5-0.9-1.9c-0.6-0.4-1.6-0.6-3-0.6h-2.7V315.6z M-42.6,317.1v5.8h3.2
				c1.3,0,2.2-0.2,2.8-0.7c0.6-0.5,1-1.3,1-2.3c0-1-0.3-1.7-1-2.1c-0.7-0.5-1.6-0.7-3-0.7H-42.6z"/>
			<path class="st0" d="M-23.3,324.5l-0.4-1.7h-0.1c-0.6,0.7-1.2,1.2-1.7,1.5c-0.6,0.3-1.3,0.4-2.2,0.4c-1.2,0-2.1-0.3-2.7-0.9
				c-0.7-0.6-1-1.4-1-2.5c0-2.4,1.9-3.6,5.7-3.7l2-0.1v-0.7c0-0.9-0.2-1.6-0.6-2c-0.4-0.4-1-0.7-1.9-0.7c-1,0-2.1,0.3-3.3,0.9
				l-0.5-1.4c0.6-0.3,1.2-0.6,1.9-0.7c0.7-0.2,1.4-0.3,2.1-0.3c1.4,0,2.4,0.3,3.1,0.9c0.7,0.6,1,1.6,1,3v8H-23.3z M-27.3,323.2
				c1.1,0,2-0.3,2.6-0.9c0.6-0.6,0.9-1.4,0.9-2.5v-1.1l-1.8,0.1c-1.4,0-2.4,0.3-3,0.7c-0.6,0.4-0.9,1-0.9,1.8c0,0.6,0.2,1.1,0.6,1.5
				C-28.6,323.1-28,323.2-27.3,323.2z"/>
			<path class="st0" d="M-13.7,324.7c-1.7,0-3-0.5-3.9-1.6c-0.9-1-1.4-2.5-1.4-4.4c0-2,0.5-3.5,1.4-4.5c0.9-1.1,2.3-1.6,4-1.6
				c0.6,0,1.1,0.1,1.7,0.2c0.6,0.1,1,0.3,1.3,0.4l-0.5,1.5c-0.4-0.2-0.8-0.3-1.3-0.4c-0.5-0.1-0.9-0.2-1.2-0.2
				c-2.4,0-3.6,1.5-3.6,4.5c0,1.4,0.3,2.5,0.9,3.3c0.6,0.8,1.4,1.1,2.6,1.1c1,0,2-0.2,3-0.6v1.6C-11.5,324.5-12.5,324.7-13.7,324.7z
				"/>
			<path class="st0" d="M-6.2,318.5c0.3-0.4,0.8-1,1.4-1.7l3.8-4H1l-4.7,5l5.1,6.7h-2.1l-4.1-5.5l-1.3,1.1v4.4H-8v-16.6h1.7v8.8
				C-6.2,317.1-6.3,317.7-6.2,318.5L-6.2,318.5z"/>
			<path class="st0" d="M13,312.8v1.1l-2.2,0.3c0.2,0.3,0.4,0.6,0.5,1c0.2,0.4,0.2,0.9,0.2,1.4c0,1.1-0.4,2.1-1.2,2.7
				c-0.8,0.7-1.9,1-3.2,1c-0.3,0-0.7,0-1-0.1c-0.8,0.4-1.1,0.9-1.1,1.5c0,0.3,0.1,0.6,0.4,0.7c0.3,0.2,0.7,0.2,1.4,0.2h2.1
				c1.3,0,2.2,0.3,2.9,0.8c0.7,0.5,1,1.3,1,2.3c0,1.3-0.5,2.3-1.6,3c-1,0.7-2.5,1-4.5,1c-1.5,0-2.7-0.3-3.5-0.9
				c-0.8-0.6-1.2-1.4-1.2-2.4c0-0.7,0.2-1.3,0.7-1.8c0.5-0.5,1.1-0.9,1.9-1.1c-0.3-0.1-0.5-0.3-0.8-0.6c-0.2-0.3-0.3-0.6-0.3-1
				c0-0.4,0.1-0.8,0.3-1.1c0.2-0.3,0.6-0.6,1.1-0.9c-0.6-0.2-1.1-0.7-1.5-1.3s-0.6-1.3-0.6-2c0-1.3,0.4-2.3,1.2-3
				c0.8-0.7,1.9-1,3.3-1c0.6,0,1.2,0.1,1.7,0.2H13z M3.7,326.4c0,0.6,0.3,1.1,0.8,1.4c0.5,0.3,1.3,0.5,2.3,0.5
				c1.5,0,2.6-0.2,3.3-0.7c0.7-0.4,1.1-1,1.1-1.8c0-0.6-0.2-1.1-0.6-1.3c-0.4-0.2-1.1-0.4-2.2-0.4H6.2c-0.8,0-1.4,0.2-1.9,0.6
				C3.9,325.2,3.7,325.7,3.7,326.4z M4.7,316.5c0,0.8,0.2,1.4,0.7,1.9c0.5,0.4,1.1,0.6,1.9,0.6c1.7,0,2.6-0.8,2.6-2.5
				c0-1.8-0.9-2.6-2.6-2.6c-0.8,0-1.5,0.2-1.9,0.7C4.9,315,4.7,315.7,4.7,316.5z"/>
			<path class="st0" d="M20.7,312.6c0.5,0,1,0,1.4,0.1l-0.2,1.6c-0.5-0.1-0.9-0.2-1.3-0.2c-0.9,0-1.8,0.4-2.4,1.1
				c-0.7,0.8-1,1.7-1,2.9v6.3h-1.8v-11.7h1.5l0.2,2.2h0.1c0.4-0.8,1-1.3,1.6-1.8C19.3,312.8,20,312.6,20.7,312.6z"/>
			<path class="st0" d="M34.4,318.6c0,1.9-0.5,3.4-1.4,4.5c-1,1.1-2.3,1.6-4,1.6c-1,0-2-0.2-2.8-0.7c-0.8-0.5-1.4-1.2-1.9-2.1
				c-0.4-0.9-0.7-2-0.7-3.2c0-1.9,0.5-3.4,1.4-4.4c1-1.1,2.3-1.6,4-1.6c1.6,0,2.9,0.5,3.9,1.6C33.9,315.3,34.4,316.8,34.4,318.6z
				 M25.5,318.6c0,1.5,0.3,2.6,0.9,3.4c0.6,0.8,1.5,1.2,2.6,1.2c1.2,0,2-0.4,2.6-1.2c0.6-0.8,0.9-1.9,0.9-3.4c0-1.5-0.3-2.6-0.9-3.4
				c-0.6-0.8-1.5-1.2-2.7-1.2c-1.2,0-2,0.4-2.6,1.1C25.8,316,25.5,317.1,25.5,318.6z"/>
			<path class="st0" d="M39.2,312.8v7.6c0,0.9,0.2,1.7,0.6,2.1c0.4,0.5,1.1,0.7,2,0.7c1.2,0,2.1-0.3,2.7-1c0.6-0.7,0.8-1.8,0.8-3.3
				v-6.1h1.8v11.7h-1.5l-0.3-1.6h-0.1c-0.4,0.6-0.9,1-1.5,1.3c-0.6,0.3-1.4,0.5-2.2,0.5c-1.4,0-2.5-0.3-3.2-1
				c-0.7-0.7-1.1-1.8-1.1-3.2v-7.6H39.2z"/>
			<path class="st0" d="M58.9,324.5v-7.6c0-1-0.2-1.7-0.7-2.1c-0.4-0.5-1.1-0.7-2-0.7c-1.2,0-2.1,0.3-2.7,1
				c-0.6,0.7-0.9,1.8-0.9,3.3v6.1h-1.8v-11.7h1.4l0.3,1.6h0.1c0.4-0.6,0.9-1,1.5-1.3c0.7-0.3,1.4-0.5,2.2-0.5c1.4,0,2.5,0.3,3.2,1
				c0.7,0.7,1.1,1.8,1.1,3.3v7.6H58.9z"/>
			<path class="st0" d="M72.2,322.9L72.2,322.9c-0.9,1.2-2.1,1.8-3.8,1.8c-1.5,0-2.7-0.5-3.6-1.6c-0.8-1-1.3-2.5-1.3-4.5
				c0-1.9,0.4-3.4,1.3-4.5c0.9-1.1,2-1.6,3.6-1.6c1.6,0,2.8,0.6,3.6,1.7h0.1l-0.1-0.8l0-0.8v-4.8h1.8v16.6h-1.4L72.2,322.9z
				 M68.7,323.2c1.2,0,2.1-0.3,2.6-1c0.5-0.7,0.8-1.7,0.8-3.2v-0.4c0-1.7-0.3-2.8-0.8-3.5c-0.6-0.7-1.4-1.1-2.6-1.1
				c-1,0-1.8,0.4-2.4,1.2c-0.6,0.8-0.8,1.9-0.8,3.4c0,1.5,0.3,2.6,0.8,3.4C66.8,322.8,67.6,323.2,68.7,323.2z"/>
		</g>
		<rect x="-199" y="335.3" class="st0" width="334.4" height="1"/>
		<path class="st0" d="M-1.1,379.2h-61.4V346h61.4V379.2z M-43.3,366.5h-5.6v-4.7h5.3v-1.3h-5.3v-4.1h5.6v-1.3h-7.1v12.7h7.1V366.5z
			 M-37.2,355.1h-3.3v12.7h1.5v-5h1.5c1.6,0,2.9-0.3,3.8-1c0.9-0.7,1.3-1.7,1.3-3C-32.4,356.3-34,355.1-37.2,355.1z M-39,356.4h1.7
			c1.2,0,2,0.2,2.6,0.6c0.6,0.4,0.8,1,0.8,1.9c0,0.9-0.3,1.6-0.9,2c-0.6,0.4-1.5,0.6-2.8,0.6H-39V356.4z M-23.3,362.3
			c-0.5-0.5-1.4-1.1-2.8-1.5c-0.8-0.3-1.4-0.5-1.8-0.8c-0.4-0.2-0.7-0.5-0.8-0.8c-0.2-0.3-0.2-0.6-0.2-1.1c0-0.6,0.2-1.1,0.7-1.4
			c0.4-0.3,1.1-0.5,1.8-0.5c1,0,2,0.2,3.1,0.7l0.5-1.3c-1.1-0.5-2.2-0.7-3.5-0.7c-1.2,0-2.2,0.3-2.9,0.9c-0.7,0.6-1.1,1.4-1.1,2.3
			c0,0.9,0.3,1.7,0.8,2.3c0.5,0.6,1.4,1.1,2.5,1.5c0.8,0.3,1.5,0.6,1.9,0.8c0.4,0.2,0.7,0.5,0.9,0.8c0.2,0.3,0.3,0.6,0.3,1.1
			c0,0.7-0.2,1.2-0.7,1.6c-0.5,0.4-1.2,0.6-2.2,0.6c-0.6,0-1.2-0.1-1.8-0.2c-0.6-0.1-1.2-0.3-1.7-0.5v1.4c0.8,0.4,2,0.6,3.5,0.6
			c1.4,0,2.5-0.3,3.3-0.9c0.8-0.6,1.2-1.5,1.2-2.6C-22.5,363.5-22.8,362.8-23.3,362.3z M-19.3,355.7c-0.7,0.6-1,1.3-1,2.2
			c0,0.7,0.2,1.2,0.5,1.8c0.3,0.5,0.9,1,1.7,1.5c-1.8,0.8-2.7,1.9-2.7,3.4c0,1.1,0.4,1.9,1.1,2.5c0.7,0.6,1.8,0.9,3.1,0.9
			c1.3,0,2.3-0.3,3-0.9c0.7-0.6,1.1-1.5,1.1-2.5c0-0.7-0.2-1.3-0.7-1.9c-0.4-0.5-1.2-1.1-2.2-1.6c0.9-0.4,1.5-0.9,1.9-1.4
			c0.4-0.5,0.6-1.1,0.6-1.7c0-1-0.3-1.7-1-2.2c-0.7-0.5-1.6-0.8-2.8-0.8C-17.8,354.9-18.7,355.2-19.3,355.7z M-18.8,363
			c0.4-0.5,1-0.9,1.9-1.2c1.1,0.4,1.9,0.8,2.4,1.3c0.4,0.4,0.7,0.9,0.7,1.5c0,0.7-0.2,1.3-0.7,1.7c-0.5,0.4-1.2,0.6-2,0.6
			c-0.9,0-1.6-0.2-2-0.6c-0.5-0.4-0.7-0.9-0.7-1.6C-19.4,364-19.2,363.4-18.8,363z M-14.9,356.6c0.4,0.3,0.6,0.8,0.6,1.4
			c0,0.5-0.2,1-0.5,1.4c-0.3,0.4-0.9,0.8-1.8,1.1c-0.9-0.4-1.6-0.8-1.9-1.2c-0.3-0.4-0.5-0.8-0.5-1.4c0-0.6,0.2-1,0.6-1.4
			c0.4-0.3,1-0.5,1.7-0.5C-15.9,356.1-15.3,356.2-14.9,356.6z"/>
	</g>
</g>
<linearGradient id="SVGID_1_" gradientUnits="userSpaceOnUse" x1="-167.9812" y1="547.2225" x2="-167.3144" y2="546.5609" gradientTransform="matrix(189.3834 0 0 -189.8058 31836.9434 103889.5078)">
	<stop  offset="0" style="stop-color:#387EB8"/>
	<stop  offset="1" style="stop-color:#366994"/>
</linearGradient>
<path class="st1" d="M126.9,0.1c-64.8,0-60.8,28.1-60.8,28.1l0.1,29.1h61.9v8.7H41.6c0,0-41.5-4.7-41.5,60.7
	c0,65.4,36.2,63.1,36.2,63.1H58v-30.4c0,0-1.2-36.2,35.6-36.2H155c0,0,34.5,0.6,34.5-33.3V34C189.4,34,194.7,0.1,126.9,0.1
	L126.9,0.1L126.9,0.1z M92.8,19.7c6.2,0,11.1,5,11.1,11.1s-5,11.1-11.1,11.1c-6.2,0-11.1-5-11.1-11.1C81.7,24.6,86.6,19.7,92.8,19.7
	L92.8,19.7L92.8,19.7z"/>
<linearGradient id="SVGID_2_" gradientUnits="userSpaceOnUse" x1="-167.9196" y1="547.1369" x2="-167.2034" y2="546.4584" gradientTransform="matrix(189.3834 0 0 -189.8058 31902.9434 103953.7812)">
	<stop  offset="0" style="stop-color:#FFE052"/>
	<stop  offset="1" style="stop-color:#FFC331"/>
</linearGradient>
<path class="st2" d="M128.8,254.1c64.8,0,60.8-28.1,60.8-28.1l-0.1-29.1h-61.9v-8.7H214c0,0,41.5,4.7,41.5-60.7
	c0-65.4-36.2-63.1-36.2-63.1h-21.6v30.4c0,0,1.2,36.2-35.6,36.2h-61.4c0,0-34.5-0.6-34.5,33.3v56C66.2,220.2,61,254.1,128.8,254.1
	L128.8,254.1L128.8,254.1z M162.9,234.5c-6.2,0-11.1-5-11.1-11.1c0-6.2,5-11.1,11.1-11.1c6.2,0,11.1,5,11.1,11.1
	C174,229.6,169,234.5,162.9,234.5L162.9,234.5L162.9,234.5z"/>
</svg>
