<svg xmlns="http://www.w3.org/2000/svg" viewBox="0 0 141.64 141.64"><defs><style>.cls-1{fill:#44b0dd;}</style></defs><g id="レイヤー_2" data-name="レイヤー 2"><g id="レイヤー_1-2" data-name="レイヤー 1"><path class="cls-1" d="M72.86,65.34c-5.4,0-9.54,3.9-9.54,10s4.14,10,9.54,10,9.48-3.9,9.48-10S78.26,65.34,72.86,65.34Z" transform="translate(0)"/><path class="cls-1" d="M24.62,81.9c0,2.7,2.28,4.44,6.12,4.44,3.66,0,6.84-1.68,8.1-5V77.64H31.1C26,77.64,24.62,79.56,24.62,81.9Z" transform="translate(0)"/><path class="cls-1" d="M117.22,0H24.42A24.42,24.42,0,0,0,0,24.42v92.8a24.42,24.42,0,0,0,24.42,24.42h92.8a24.42,24.42,0,0,0,24.42-24.42V24.42A24.42,24.42,0,0,0,117.22,0ZM46.34,91.38H39.26v-3.9C37.46,90.24,34,91.8,29.18,91.8c-7.32,0-11.94-4-11.94-9.6,0-5.34,3.6-9.54,13.32-9.54h8.28v-.48c0-4.38-2.64-7-8-7a15.86,15.86,0,0,0-9.72,3.18L18.2,62.94c3.42-2.64,8.4-4,13.56-4C41,59,46.34,63.36,46.34,72.6Zm27.36.42c-4.38,0-8.1-1.5-10.62-4.56v4.14H55.94V46.86h7.5V63.24A13.32,13.32,0,0,1,73.7,59C83.06,59,90,65.4,90,75.36S83.06,91.8,73.7,91.8Zm38-6.42a9.07,9.07,0,0,0,8-4.44l5.76,3.36C123,89.1,118,91.8,111.8,91.8c-10.14,0-17.34-6.84-17.34-16.44S101.66,59,111.8,59c6.24,0,11.22,2.58,13.68,7.44l-5.76,3.36a9.07,9.07,0,0,0-8-4.44c-5.52,0-9.72,3.84-9.72,10S106.22,85.38,111.74,85.38Z" transform="translate(0)"/></g></g></svg>